<svg width="35" height="35" viewBox="0 0 35 35" fill="none" xmlns="http://www.w3.org/2000/svg">
<path d="M17.5 0.700195C8.22151 0.700195 0.700012 8.2217 0.700012 17.5002C0.700012 26.7787 8.22151 34.3002 17.5 34.3002C26.7785 34.3002 34.3 26.7787 34.3 17.5002C34.3 8.2217 26.7785 0.700195 17.5 0.700195ZM18.6498 21.4814C17.5718 21.3992 17.1203 20.8654 16.2768 20.3544C15.813 22.7887 15.246 25.1232 13.566 26.3429C13.0463 22.6609 14.3255 19.8994 14.9205 16.9647C13.9073 15.2584 15.0413 11.8267 17.1798 12.6702C19.81 13.7132 14.9013 19.0139 18.1965 19.6772C21.637 20.3667 23.0423 13.7062 20.909 11.5432C17.8255 8.41595 11.9368 11.4714 12.6613 15.9479C12.8363 17.0417 13.9685 17.3742 13.1128 18.8844C11.1405 18.4469 10.5508 16.8912 10.6278 14.8174C10.7485 11.4224 13.678 9.0442 16.6145 8.71695C20.3298 8.30395 23.8158 10.0802 24.2988 13.5767C24.8395 17.5212 22.6205 21.7894 18.6498 21.4814Z" fill="#545454"/>
</svg>
