<svg width="35" height="35" viewBox="0 0 35 35" fill="none" xmlns="http://www.w3.org/2000/svg">
<path d="M17.5 0.700195C8.22151 0.700195 0.700012 8.2217 0.700012 17.5002C0.700012 26.7787 8.22151 34.3002 17.5 34.3002C26.7785 34.3002 34.3 26.7787 34.3 17.5002C34.3 8.2217 26.7785 0.700195 17.5 0.700195ZM24.3338 14.4622C24.3408 14.6057 24.3425 14.7492 24.3425 14.8892C24.3425 19.2642 21.0158 24.3059 14.9293 24.3059C13.1308 24.3089 11.3697 23.7924 9.85776 22.8184C10.115 22.8499 10.3793 22.8622 10.647 22.8622C12.1975 22.8622 13.6238 22.3354 14.756 21.4464C14.066 21.4329 13.3974 21.2044 12.8435 20.7929C12.2895 20.3813 11.8777 19.8071 11.6655 19.1504C12.161 19.2447 12.6715 19.2249 13.1583 19.0927C12.4093 18.9413 11.7359 18.5355 11.252 17.9441C10.7681 17.3528 10.5037 16.6123 10.5035 15.8482V15.8079C10.9498 16.0547 11.4608 16.2052 12.0033 16.2227C11.3012 15.7553 10.8041 15.0374 10.6138 14.2157C10.4235 13.394 10.5544 12.5306 10.9795 11.8022C11.8107 12.8242 12.8472 13.6603 14.022 14.2562C15.1968 14.8522 16.4837 15.1949 17.7993 15.2619C17.632 14.552 17.704 13.8067 18.004 13.1418C18.3041 12.477 18.8154 11.9299 19.4584 11.5857C20.1014 11.2414 20.8402 11.1192 21.5598 11.2381C22.2795 11.357 22.9397 11.7104 23.4378 12.2432C24.1783 12.0967 24.8885 11.825 25.5378 11.4399C25.2909 12.2067 24.7742 12.8578 24.0835 13.2722C24.7395 13.1932 25.38 13.0168 25.984 12.7489C25.5404 13.4138 24.9815 13.994 24.3338 14.4622V14.4622Z" fill="#545454"/>
</svg>
