<svg width="1024" height="1024" viewBox="0 0 1024 1024" fill="none" xmlns="http://www.w3.org/2000/svg">
<path d="M512 64C264.6 64 64 264.6 64 512C64 759.4 264.6 960 512 960C759.4 960 960 759.4 960 512C960 264.6 759.4 64 512 64ZM727.3 401.7C727.6 406.4 727.6 411.3 727.6 416.1C727.6 562.9 615.8 732 411.5 732C348.5 732 290.1 713.7 240.9 682.2C249.9 683.2 258.5 683.6 267.7 683.6C319.7 683.6 367.5 666 405.6 636.2C356.8 635.2 315.8 603.2 301.8 559.2C318.9 561.7 334.3 561.7 351.9 557.2C326.773 552.095 304.188 538.448 287.982 518.578C271.776 498.708 262.949 473.841 263 448.2V446.8C277.7 455.1 295 460.2 313.1 460.9C297.884 450.759 285.406 437.021 276.771 420.903C268.136 404.785 263.612 386.785 263.6 368.5C263.6 347.8 269 328.9 278.7 312.5C306.59 346.834 341.393 374.914 380.846 394.917C420.3 414.919 463.521 426.395 507.7 428.6C492 353.1 548.4 292 616.2 292C648.2 292 677 305.4 697.3 327C722.4 322.3 746.4 312.9 767.8 300.3C759.5 326 742.1 347.7 719 361.4C741.4 359 763 352.8 783 344.1C767.9 366.3 749 386 727.3 401.7V401.7Z" fill="#545454"/>
</svg>
