<svg width="32" height="32" viewBox="0 0 32 32" fill="none" xmlns="http://www.w3.org/2000/svg">
<path d="M16 0.639648C7.51682 0.639648 0.640015 7.51645 0.640015 15.9997C0.640015 24.4829 7.51682 31.3597 16 31.3597C24.4832 31.3597 31.36 24.4829 31.36 15.9997C31.36 7.51645 24.4832 0.639648 16 0.639648ZM17.0512 19.6397C16.0656 19.5645 15.6528 19.0764 14.8816 18.6092C14.4576 20.8348 13.9392 22.9693 12.4032 24.0845C11.928 20.7181 13.0976 18.1933 13.6416 15.5101C12.7152 13.9501 13.752 10.8124 15.7072 11.5836C18.112 12.5372 13.624 17.3837 16.6368 17.9901C19.7824 18.6205 21.0672 12.5308 19.1168 10.5532C16.2976 7.69405 10.9136 10.4876 11.576 14.5805C11.736 15.5805 12.7712 15.8845 11.9888 17.2653C10.1856 16.8653 9.64641 15.4429 9.71681 13.5469C9.82722 10.4428 12.5056 8.26845 15.1904 7.96925C18.5872 7.59165 21.7744 9.21565 22.216 12.4124C22.7104 16.0188 20.6816 19.9213 17.0512 19.6397Z" fill="#545454"/>
</svg>
